<?xml version="1.0" encoding="utf-8"?>
<!-- Generator: Adobe Illustrator 21.0.0, SVG Export Plug-In . SVG Version: 6.00 Build 0)  -->
<svg version="1.1" id="Layer_1" xmlns="http://www.w3.org/2000/svg" xmlns:xlink="http://www.w3.org/1999/xlink" x="0px" y="0px"
	 viewBox="0 0 512 512" style="enable-background:new 0 0 512 512;" xml:space="preserve">
<style type="text/css">
	.st0{fill:#515151;}
	.st1{fill:#FEEAC5;}
	.st2{fill:#F5AF29;}
</style>
<title>grain</title>
<circle class="st0" cx="256" cy="256" r="256"/>
<path class="st1" d="M307.5,153.7c-3,5.6-0.9,12.5,4.7,15.5c2.4,1.3,5.2,1.7,7.8,1.1c3-5.6,0.9-12.5-4.7-15.5
	C312.9,153.5,310.1,153.1,307.5,153.7L307.5,153.7z"/>
<path class="st1" d="M324.5,159c6.1-1.8,9.5-8.2,7.6-14.3c-0.8-2.6-2.5-4.9-4.8-6.3c-6.1,1.8-9.5,8.3-7.6,14.3
	C320.5,155.3,322.2,157.5,324.5,159z"/>
<path class="st1" d="M305.1,170.9c-3,5.6-0.9,12.5,4.7,15.5c2.4,1.3,5.2,1.7,7.8,1.1c3-5.6,0.9-12.5-4.7-15.5
	C310.5,170.7,307.8,170.3,305.1,170.9z"/>
<path class="st1" d="M302.7,188.1c-3,5.6-0.9,12.5,4.7,15.5c2.4,1.3,5.2,1.7,7.9,1.1c3-5.6,0.9-12.5-4.7-15.5
	C308.2,187.9,305.4,187.5,302.7,188.1z"/>
<path class="st1" d="M300.3,205.3c-3,5.6-0.9,12.5,4.7,15.5c2.4,1.3,5.2,1.7,7.8,1.1c3-5.6,0.9-12.5-4.7-15.5
	C305.8,205.1,303,204.7,300.3,205.3z"/>
<path class="st1" d="M297.9,222.5c-3,5.6-0.9,12.5,4.7,15.5c2.4,1.3,5.2,1.7,7.8,1.1c3-5.6,0.9-12.5-4.7-15.5
	C303.4,222.3,300.6,221.9,297.9,222.5z"/>
<path class="st1" d="M341.4,158.4c1.4,6.2-2.5,12.3-8.7,13.7c-2.7,0.6-5.5,0.2-7.9-1.1c-1.3-6.2,2.6-12.3,8.8-13.6
	C336.2,156.8,339,157.2,341.4,158.4L341.4,158.4z"/>
<path class="st1" d="M339,175.6c1.3,6.2-2.6,12.3-8.8,13.7c-2.7,0.6-5.4,0.2-7.8-1.1c-1.4-6.2,2.6-12.3,8.8-13.7
	C333.8,173.9,336.6,174.3,339,175.6z"/>
<path class="st1" d="M336.6,192.8c1.4,6.2-2.6,12.3-8.7,13.6c-2.7,0.6-5.5,0.2-7.9-1.1c-1.3-6.2,2.6-12.3,8.8-13.6
	C331.4,191.1,334.2,191.5,336.6,192.8L336.6,192.8z"/>
<path class="st1" d="M334.2,210c1.4,6.2-2.6,12.3-8.7,13.6c-2.7,0.6-5.5,0.2-7.9-1.1c-1.4-6.2,2.6-12.3,8.7-13.6
	C329,208.3,331.8,208.7,334.2,210z"/>
<path class="st1" d="M331.9,227.2c1.3,6.2-2.6,12.3-8.8,13.6c-2.7,0.6-5.4,0.2-7.8-1.1c-1.3-6.2,2.6-12.3,8.8-13.6
	C326.7,225.5,329.4,225.9,331.9,227.2L331.9,227.2z"/>
<path class="st1" d="M250.3,91.6c-1.9,6.1,1.5,12.5,7.6,14.3c2.6,0.8,5.4,0.7,7.9-0.4c1.9-6.1-1.5-12.5-7.6-14.3
	C255.6,90.3,252.8,90.5,250.3,91.6z"/>
<path class="st1" d="M268,93.5c5.6-3,7.7-9.9,4.8-15.5c-1.3-2.4-3.4-4.3-5.9-5.3c-5.6,3-7.7,9.9-4.8,15.5
	C263.4,90.6,265.5,92.5,268,93.5z"/>
<path class="st1" d="M251.2,108.9c-1.9,6.1,1.5,12.5,7.6,14.3c2.6,0.8,5.4,0.7,7.9-0.4c1.9-6.1-1.5-12.5-7.6-14.3
	C256.5,107.7,253.7,107.8,251.2,108.9L251.2,108.9z"/>
<path class="st1" d="M252.1,126.2c-1.9,6.1,1.5,12.5,7.6,14.3c2.6,0.8,5.4,0.7,7.9-0.4c1.9-6.1-1.5-12.5-7.6-14.3
	C257.4,125,254.6,125.1,252.1,126.2z"/>
<path class="st1" d="M253,143.6c-1.9,6.1,1.5,12.5,7.6,14.3c2.6,0.8,5.4,0.7,7.9-0.4c1.9-6-1.5-12.5-7.5-14.3
	C258.3,142.3,255.5,142.5,253,143.6z"/>
<path class="st1" d="M254,160.9c-1.9,6,1.5,12.5,7.6,14.3c2.6,0.8,5.4,0.7,7.9-0.4c1.9-6-1.5-12.5-7.6-14.3
	C259.3,159.6,256.5,159.8,254,160.9z"/>
<path class="st1" d="M284.5,89.7c2.5,5.8-0.2,12.6-6,15.1c-2.5,1.1-5.3,1.2-7.9,0.4c-2.5-5.8,0.2-12.6,6-15.1
	C279,89.1,281.8,88.9,284.5,89.7z"/>
<path class="st1" d="M285.4,107.1c2.5,5.8-0.2,12.6-6,15.1c-2.5,1.1-5.3,1.2-7.9,0.4c-2.5-5.8,0.2-12.6,6-15.1
	C280,106.4,282.8,106.3,285.4,107.1z"/>
<path class="st1" d="M286.3,124.4c2.5,5.8-0.2,12.6-6,15.1c-2.5,1.1-5.3,1.2-7.9,0.4c-2.5-5.8,0.2-12.6,6-15.1
	C280.9,123.7,283.7,123.6,286.3,124.4z"/>
<path class="st1" d="M287.2,141.7c2.5,5.8-0.2,12.6-6,15.1c-2.5,1.1-5.3,1.2-7.9,0.4c-2.5-5.8,0.2-12.5,6-15.1
	C281.8,141.1,284.6,140.9,287.2,141.7z"/>
<path class="st1" d="M288.2,159c2.5,5.8-0.2,12.6-6,15.1c-2.5,1.1-5.3,1.2-7.9,0.4c-2.5-5.8,0.2-12.5,6-15.1
	C282.7,158.3,285.5,158.2,288.2,159z"/>
<path class="st1" d="M207.8,146.5c-1.1,6.2,3.1,12.2,9.3,13.2c2.7,0.5,5.5,0,7.8-1.4c1.1-6.2-3.1-12.2-9.4-13.2
	C212.9,144.6,210.1,145.1,207.8,146.5z"/>
<path class="st1" d="M225.6,146.1c5.2-3.6,6.4-10.8,2.8-16c-1.6-2.2-3.9-3.8-6.6-4.5c-5.2,3.6-6.4,10.8-2.8,16
	C220.7,143.8,223,145.4,225.6,146.1z"/>
<path class="st1" d="M211,163.6c-1.1,6.2,3.1,12.2,9.3,13.2c2.7,0.5,5.5,0,7.8-1.4c1.1-6.2-3.1-12.2-9.4-13.2
	C216.1,161.7,213.3,162.2,211,163.6z"/>
<path class="st1" d="M214.1,180.6c-1.1,6.2,3.1,12.2,9.4,13.2c2.7,0.5,5.5-0.1,7.8-1.4c1.1-6.2-3.1-12.2-9.4-13.2
	C219.2,178.7,216.4,179.2,214.1,180.6z"/>
<path class="st1" d="M217.3,197.7c-1.1,6.2,3.1,12.2,9.3,13.2c2.7,0.5,5.5,0,7.8-1.4c1.1-6.2-3.1-12.2-9.3-13.2
	C222.4,195.8,219.6,196.3,217.3,197.7z"/>
<path class="st1" d="M220.4,214.7c-1.1,6.2,3.1,12.2,9.3,13.2c2.7,0.5,5.5,0,7.8-1.4c1.1-6.2-3.1-12.2-9.4-13.2
	C225.5,212.8,222.8,213.3,220.4,214.7z"/>
<path class="st1" d="M241.5,140.3c3.2,5.4,1.4,12.5-4,15.7c-2.3,1.4-5.1,1.9-7.8,1.4c-3.2-5.4-1.4-12.5,4-15.7
	C236,140.3,238.8,139.8,241.5,140.3z"/>
<path class="st1" d="M244.6,157.3c3.2,5.4,1.4,12.5-4,15.7c-2.3,1.4-5.1,1.9-7.8,1.4c-3.2-5.4-1.4-12.5,4-15.7
	C239.2,157.4,241.9,156.9,244.6,157.3z"/>
<path class="st1" d="M247.8,174.4c3.2,5.4,1.5,12.5-4,15.7c-2.3,1.4-5.1,1.9-7.8,1.5c-3.2-5.4-1.4-12.5,4-15.7
	C242.4,174.4,245.1,173.9,247.8,174.4L247.8,174.4z"/>
<path class="st1" d="M250.9,191.4c3.2,5.4,1.4,12.5-4,15.7c-2.3,1.4-5.1,1.9-7.8,1.4c-3.2-5.4-1.5-12.5,4-15.7
	C245.5,191.5,248.2,191,250.9,191.4z"/>
<path class="st1" d="M254.1,208.5c3.2,5.4,1.4,12.5-4,15.7c-2.3,1.4-5.1,1.9-7.8,1.4c-3.2-5.4-1.4-12.5,4-15.7
	C248.6,208.6,251.4,208.1,254.1,208.5z"/>
<path class="st2" d="M347.4,265.9C311.3,339.9,304,439.3,304,439.3h12.6c0,0,10.9-86.7,32.5-146.3L347.4,265.9z"/>
<path class="st2" d="M352.8,265.9c9,68.6,25.3,139.1,25.3,139.1s3.6-36.1-7.2-140.9L352.8,265.9z"/>
<path class="st2" d="M296.2,437.5c-65.6-81.3-162.9-234.8-162.9-234.8s46.1,119.2,148.2,234.8H296.2z"/>
<path class="st2" d="M305.5,435.1c0,0.4-0.1,0.9-0.1,1.3l0.3-0.1C305.7,436.2,305.6,435.8,305.5,435.1z M268.5,185.9
	c1,70.5,21.5,204.1,27.7,242.4c0.9-8.6,2-18.7,3.5-29.8c-8.5-56-23.1-160.4-23.3-216.4L268.5,185.9z"/>
<path class="st2" d="M284.8,411l-5.1-29c-18-64.8-39.1-152.2-35.4-151.6l-7.5,3.4c-2.7,3.2,18.7,92,36.8,156.4L284.8,411z"/>
<path class="st2" d="M306.6,248c-3.1,38.9-4.2,71.9-4.8,106.7l1.9,29.6l4.8-33.7c0.7-35.5,1.8-66.1,4.9-101.2L306.6,248z"/>
</svg>
